<?xml version="1.0" standalone="no"?>
<!DOCTYPE svg PUBLIC "-//W3C//DTD SVG 20010904//EN"
 "http://www.w3.org/TR/2001/REC-SVG-20010904/DTD/svg10.dtd">
<svg version="1.0" xmlns="http://www.w3.org/2000/svg"
 width="512.000000pt" height="512.000000pt" viewBox="0 0 512.000000 512.000000"
 preserveAspectRatio="xMidYMid meet">
<metadata>
Created by potrace 1.14, written by Peter Selinger 2001-2017
</metadata>
<g transform="translate(0.000000,512.000000) scale(0.100000,-0.100000)"
fill="#000000" stroke="none">
<path d="M1841 4782 c-17 -13 -51 -116 -151 -457 -71 -241 -127 -441 -124
-444 6 -7 1985 -7 1989 -1 4 7 -7 47 -105 380 -39 135 -88 301 -107 370 -37
130 -62 170 -105 170 -17 0 -232 -107 -595 -296 l-82 -43 -68 36 c-353 183
-593 303 -610 303 -12 0 -31 -8 -42 -18z"/>
<path d="M1034 3722 c-50 -7 -61 -13 -72 -37 -18 -39 -16 -50 32 -149 128
-265 301 -454 481 -527 l60 -24 1025 0 c1019 1 1025 1 1082 22 172 64 338 243
475 512 29 57 53 114 53 127 0 13 -11 35 -24 50 l-23 28 -1535 0 c-844 1
-1543 0 -1554 -2z"/>
<path d="M1542 2825 c-7 -11 -5 -312 3 -369 16 -120 56 -246 108 -346 223
-425 699 -637 1162 -519 96 24 217 76 280 118 25 17 48 31 50 31 19 0 203 182
247 245 101 145 163 304 184 472 3 29 7 124 8 212 l1 161 -1018 2 c-643 2
-1021 -1 -1025 -7z"/>
<path d="M1245 2373 c-77 -69 -176 -158 -220 -197 -44 -40 -100 -90 -124 -112
-25 -21 -57 -50 -71 -64 -14 -14 -44 -41 -67 -60 -62 -55 -212 -191 -260 -236
-68 -65 -60 -92 49 -180 40 -32 82 -66 93 -76 22 -18 285 -232 490 -397 72
-58 132 -108 135 -111 3 -3 39 -32 80 -65 104 -83 110 -90 110 -129 0 -25 -7
-40 -26 -55 -52 -41 -57 -38 -316 177 -43 35 -82 62 -87 60 -5 -1 -29 -31 -53
-65 -24 -34 -83 -120 -133 -190 -49 -70 -109 -154 -132 -188 -51 -73 -56 -113
-17 -144 l27 -21 1837 0 1837 0 27 21 c52 41 43 62 -150 335 -96 137 -179 250
-184 252 -5 2 -47 -27 -93 -65 -46 -37 -102 -83 -124 -101 -23 -18 -54 -44
-69 -57 -41 -35 -81 -41 -113 -18 -27 21 -40 70 -24 96 6 12 108 98 223 190
48 38 117 94 135 109 119 97 225 184 355 288 85 69 168 136 185 150 114 96
120 119 47 189 -42 40 -169 156 -228 208 -25 21 -157 139 -188 168 -37 34
-175 157 -291 260 -60 54 -115 103 -120 109 -27 30 -52 46 -52 34 -1 -24 -14
-123 -19 -140 -3 -9 -7 -27 -9 -39 -5 -27 -33 -116 -45 -144 -116 -273 -278
-465 -503 -596 -42 -24 -76 -47 -77 -51 0 -4 -29 -68 -65 -143 -36 -76 -65
-139 -65 -141 0 -2 -34 -74 -75 -160 -41 -86 -75 -157 -75 -159 0 -1 -26 -58
-59 -126 -32 -68 -70 -151 -85 -184 -15 -33 -35 -68 -43 -77 -21 -24 -85 -24
-105 0 -9 9 -45 80 -81 157 -112 239 -151 324 -238 510 -154 331 -156 336
-221 372 -305 169 -540 525 -574 871 -4 31 -7 58 -8 59 -1 1 -64 -55 -141
-124z"/>
<path d="M2253 1419 c15 -35 57 -123 236 -503 34 -70 61 -133 61 -139 0 -24
29 23 75 123 26 58 66 143 88 190 106 226 165 355 163 357 -1 1 -19 -2 -40 -8
-164 -45 -453 -42 -580 7 -16 6 -16 4 -3 -27z"/>
</g>
</svg>
